<svg xmlns="http://www.w3.org/2000/svg" viewBox="0 0 1600 900" role="img" aria-labelledby="t d"><title id="t">Language access illustration</title><desc id="d">Interlocking speech bubbles, a stethoscope and a check mark.</desc><defs><linearGradient id="g" x2="1" y2="1"><stop stop-color="#eef8ff"/><stop offset="1" stop-color="#f2fbf3"/></linearGradient></defs><rect width="1600" height="900" fill="url(#g)"/><path d="M250 225h520a80 80 0 0180 80v210a80 80 0 01-80 80H520L350 720v-125H250a80 80 0 01-80-80V305a80 80 0 0180-80z" fill="#0d5eb8"/><path d="M850 325h500a75 75 0 0175 75v190a75 75 0 01-75 75h-135v120l-155-120H850a75 75 0 01-75-75V400a75 75 0 0175-75z" fill="#18a11a" opacity=".96"/><g fill="none" stroke="#fff" stroke-width="24" stroke-linecap="round"><path d="M315 390h380M315 465h280"/><path d="M925 470l85 78 165-170"/></g><path d="M1270 690c0 76-60 135-135 135s-135-59-135-135" fill="none" stroke="#0b2e55" stroke-width="20"/><circle cx="1000" cy="690" r="28" fill="#0b2e55"/><circle cx="1270" cy="690" r="28" fill="#0b2e55"/><g font-family="system-ui,sans-serif" fill="#0b2e55"><text x="90" y="115" font-size="54" font-weight="760">Understanding is a clinical safety issue.</text><text x="90" y="835" font-size="31">Clear language and qualified interpretation protect better decisions.</text></g></svg>