<svg xmlns="http://www.w3.org/2000/svg" viewBox="0 0 1600 900" role="img" aria-labelledby="t d"><title id="t">Reseda health access illustration</title><desc id="d">A neighborhood grid, a community clinic and connected pathways.</desc><defs><linearGradient id="g" x1="0" y1="0" x2="1" y2="1"><stop stop-color="#e9f5ff"/><stop offset="1" stop-color="#e8f8ec"/></linearGradient><filter id="s"><feDropShadow dx="0" dy="16" stdDeviation="22" flood-opacity=".12"/></filter></defs><rect width="1600" height="900" fill="url(#g)"/><g opacity=".45" stroke="#8fb8de" stroke-width="4"><path d="M0 175h1600M0 350h1600M0 525h1600M0 700h1600"/><path d="M220 0v900M520 0v900M820 0v900M1120 0v900M1420 0v900"/></g><g filter="url(#s)"><rect x="535" y="215" width="530" height="470" rx="38" fill="#fff"/><path d="M650 420h300v190H650z" fill="#0d5eb8"/><path d="M610 420l190-135 190 135z" fill="#18a11a"/><rect x="752" y="470" width="96" height="140" rx="8" fill="#fff"/><path d="M795 330v60m-30-30h60" stroke="#fff" stroke-width="24" stroke-linecap="round"/></g><g fill="none" stroke="#0d5eb8" stroke-width="16" stroke-linecap="round" stroke-dasharray="2 34"><path d="M120 690C370 520 390 455 535 455"/><path d="M1480 220C1240 290 1190 380 1065 455"/></g><g fill="#18a11a"><circle cx="115" cy="690" r="34"/><circle cx="1482" cy="218" r="34"/></g><g font-family="system-ui,sans-serif" fill="#0b2e55"><text x="92" y="120" font-size="52" font-weight="700">Neighborhood health is built from access.</text><text x="94" y="785" font-size="30">Time • language • cost • transportation • continuity</text></g></svg>